<?xml version="1.0" encoding="utf-8"?>
<!-- Generator: Adobe Illustrator 24.1.2, SVG Export Plug-In . SVG Version: 6.00 Build 0)  -->
<svg version="1.1" id="f90379f0-386c-4bb1-8522-a9f66969fa1c"
	 xmlns="http://www.w3.org/2000/svg" xmlns:xlink="http://www.w3.org/1999/xlink" x="0px" y="0px" viewBox="0 0 923.4 627.6"
	 style="enable-background:new 0 0 923.4 627.6;" xml:space="preserve">
<style type="text/css">
	.st0{display:none;fill:#E6E6E6;}
	.st1{display:none;fill:#EA526F;}
	.st2{display:none;fill:#3F3D56;}
	.st3{fill:none;stroke:#000099;stroke-width:2;stroke-miterlimit:10;}
	.st4{fill:#FFFFFF;}
	.st5{fill:#000066;}
	.st6{fill:#3366FF;}
	.st7{fill:#000099;}
	.st8{fill:none;stroke:#FFFFFF;stroke-miterlimit:10;}
</style>
<path class="st0" d="M844.2,321.1H656.5c-6.2,0-11.3-5.1-11.3-11.3v-82.3c0-6.2,5.1-11.3,11.3-11.3h187.7c6.2,0,11.3,5.1,11.3,11.3
	v82.3C855.5,316.1,850.5,321.1,844.2,321.1z"/>
<path class="st1" d="M662.2,241.9H474.5c-6.2,0-11.3-5.1-11.3-11.3v-82.3c0-6.2,5.1-11.3,11.3-11.3h187.7c6.2,0,11.3,5.1,11.3,11.3
	v82.3C673.5,236.8,668.5,241.9,662.2,241.9z"/>
<path class="st2" d="M674.5,233.4H486.8c-6.5,0-11.7-5.2-11.7-11.7v-82.3c0-6.5,5.2-11.7,11.7-11.7h187.7c6.5,0,11.7,5.2,11.7,11.7
	v82.3C686.2,228.2,680.9,233.4,674.5,233.4z M486.8,129.4c-5.6,0-10.1,4.5-10.1,10.1v82.3c0,5.6,4.5,10.1,10.1,10.1h187.7
	c5.6,0,10.1-4.5,10.1-10.1v-82.3c0-5.6-4.5-10.1-10.1-10.1L486.8,129.4L486.8,129.4z"/>
<rect x="472.9" y="141.5" class="st3" width="211.1" height="105.7"/>
<rect x="654.8" y="221.2" class="st3" width="211.1" height="105.7"/>
<rect x="643" y="230" class="st4" width="210.3" height="104.9"/>
<rect x="461" y="150.8" class="st5" width="210.3" height="104.9"/>
<rect x="488.4" y="170.1" class="st4" width="171" height="15.6"/>
<rect x="488.4" y="203.2" class="st4" width="113.5" height="15.6"/>
<rect x="684" y="293.6" class="st6" width="113.5" height="15.6"/>
<rect x="712.7" y="255.6" class="st6" width="113.5" height="15.6"/>
<rect x="584" y="283.4" class="st7" width="27.4" height="27.4"/>
<rect x="592.3" y="276.5" class="st8" width="27.4" height="27.4"/>
</svg>
