<?xml version="1.0" encoding="utf-8"?>
<!-- Generator: Adobe Illustrator 24.1.2, SVG Export Plug-In . SVG Version: 6.00 Build 0)  -->
<svg version="1.1" id="bea23e6e-af5d-418d-9f98-e166edf04ad5"
	 xmlns="http://www.w3.org/2000/svg" xmlns:xlink="http://www.w3.org/1999/xlink" x="0px" y="0px" viewBox="0 0 923.37 816.13"
	 style="enable-background:new 0 0 923.37 816.13;" xml:space="preserve">
<style type="text/css">
	.st0{fill:#E6E6E6;}
	.st1{fill:#3F3D56;}
	.st2{fill:#EA526F;}
	.st3{fill:#FF6584;}
</style>
<circle class="st0" cx="509.37" cy="495.05" r="180.94"/>
<rect x="175.86" y="394.31" class="st1" width="299.28" height="1.96"/>
<rect x="175.86" y="448.1" class="st1" width="587.8" height="1.96"/>
<path class="st1" d="M582.72,640.77c-100.31,0-181.92-81.61-181.92-181.92s81.61-181.92,181.92-181.92s181.92,81.61,181.92,181.92
	S683.03,640.77,582.72,640.77z M582.72,278.9c-99.23,0-179.96,80.73-179.96,179.96s80.73,179.96,179.96,179.96
	s179.96-80.73,179.96-179.96S681.95,278.9,582.72,278.9L582.72,278.9z"/>
<circle class="st2" cx="565.94" cy="280.34" r="23.88"/>
<circle class="st3" cx="617.39" cy="430.04" r="15.45"/>
<circle class="st2" cx="770.43" cy="446.31" r="35.29"/>
<path class="st1" d="M274.31,585.57H167.22v1.96h107.09c10.98,0,19.88,8.9,19.88,19.88c0,10.98-8.9,19.87-19.88,19.88H112.26
	c-10.98,0-19.88-8.9-19.88-19.88c0-10.98,8.9-19.87,19.88-19.88h6.06v-1.96h-6.06c-12.06,0-21.83,9.78-21.83,21.84
	c0,12.06,9.78,21.83,21.83,21.83h162.05c12.06,0,21.83-9.78,21.83-21.84C296.14,595.35,286.37,585.58,274.31,585.57z"/>
<path class="st1" d="M274.31,653.06H167.22v1.96h107.09c10.98,0,19.88,8.9,19.88,19.88c0,10.98-8.9,19.87-19.88,19.88H112.26
	c-10.98,0-19.88-8.9-19.88-19.88c0-10.98,8.9-19.87,19.88-19.88h6.06v-1.96h-6.06c-12.06,0-21.83,9.78-21.83,21.84
	c0,12.06,9.78,21.83,21.83,21.83h162.05c12.06,0,21.83-9.78,21.83-21.84C296.14,662.83,286.37,653.06,274.31,653.06z"/>
<path class="st1" d="M490.21,704.52H383.12v1.96h107.09c10.98,0,19.88,8.9,19.88,19.88c0,10.98-8.9,19.87-19.88,19.88H328.16
	c-10.98,0-19.88-8.9-19.88-19.88c0-10.98,8.9-19.87,19.88-19.88h6.06v-1.96h-6.06c-12.06,0-21.83,9.78-21.83,21.84
	c0,12.06,9.78,21.83,21.83,21.83h162.05c12.06,0,21.83-9.78,21.83-21.84C512.04,714.3,502.27,704.52,490.21,704.52z"/>
<path id="be0e5baf-e5ec-4f16-9492-7d4921bb2c9b" class="st2" d="M346.3,564.39c-3.21,0.05-5.77,2.7-5.72,5.91
	c0.05,3.14,2.58,5.67,5.72,5.72h25.51c3.21,0.04,5.85-2.53,5.89-5.74c0.04-3.2-2.5-5.83-5.7-5.89c-0.06,0-0.13,0-0.19,0H346.3z"/>
<path id="f5faaf73-4e1d-4e3d-a937-9f255bff3911" class="st3" d="M346.3,632.85c-3.21,0.05-5.77,2.7-5.72,5.91
	c0.05,3.14,2.58,5.67,5.72,5.72h25.51c3.21,0.04,5.85-2.53,5.89-5.74c0.04-3.2-2.5-5.83-5.7-5.89c-0.06,0-0.13,0-0.19,0H346.3z"/>
<path id="bdcbecaa-58f8-42a6-983f-c76dd899917c" class="st1" d="M346.3,699.36c-3.21,0.05-5.77,2.7-5.72,5.91
	c0.05,3.14,2.58,5.67,5.72,5.72h25.51c3.21,0.05,5.85-2.52,5.9-5.73c0.05-3.2-2.51-5.84-5.71-5.9c-0.06,0-0.13,0-0.19,0H346.3z"/>
<path id="bbcd49d7-9efc-41e7-bbf8-c6009cf796dd" class="st0" d="M120.28,601.59c-3.21,0.05-5.77,2.7-5.72,5.91
	c0.05,3.14,2.58,5.67,5.72,5.72h145.81c3.21,0.06,5.86-2.49,5.93-5.7c0.06-3.21-2.49-5.86-5.7-5.93c-0.01,0-0.02,0-0.03,0
	c-0.06,0-0.13,0-0.19,0H120.28z"/>
<path id="b24c44c6-9087-448d-956a-9230903e4c37" class="st0" d="M120.28,669.08c-3.21,0.05-5.77,2.7-5.72,5.91
	c0.05,3.14,2.58,5.67,5.72,5.72h145.81c3.21,0.06,5.86-2.49,5.93-5.7c0.06-3.21-2.49-5.86-5.7-5.93c-0.01,0-0.02,0-0.03,0
	c-0.06,0-0.13,0-0.19,0H120.28z"/>
<path id="f49c9183-be6f-4e21-8191-a3b3cb38d75e" class="st0" d="M120.28,736.56c-3.21,0.05-5.77,2.7-5.72,5.91
	c0.05,3.14,2.58,5.67,5.72,5.72h145.81c3.21,0.06,5.86-2.5,5.92-5.71c0.06-3.21-2.5-5.86-5.71-5.92c0,0-0.01,0-0.01,0
	c-0.06,0-0.13,0-0.19,0H120.28z"/>
</svg>
