<?xml version="1.0" encoding="utf-8"?>
<!-- Generator: Adobe Illustrator 24.1.2, SVG Export Plug-In . SVG Version: 6.00 Build 0)  -->
<svg version="1.1" id="f2984ede-f8d1-4e85-9ee9-bcd88991e3aa"
	 xmlns="http://www.w3.org/2000/svg" xmlns:xlink="http://www.w3.org/1999/xlink" x="0px" y="0px" viewBox="0 0 313.62 254.25"
	 style="enable-background:new 0 0 313.62 254.25;" xml:space="preserve">
<style type="text/css">
	.st0{fill:#EA526F;}
	.st1{fill:#E6E6E6;}
</style>
<g id="b27415e1-f145-4e59-a9aa-570eb8a339dc">
	<circle id="e89c32d8-4b45-4e69-8fc8-dc3b9b2560cf" class="st0" cx="113.74" cy="105.37" r="21.12"/>
	<path id="eb6506ad-3e1b-450c-9b9c-2efc6ee874e1" class="st1" d="M179.96,170.44H76.37c-0.13,0-0.26-0.01-0.39-0.03l49-84.86
		c0.93-1.65,3.03-2.23,4.67-1.3c0.54,0.31,0.99,0.75,1.3,1.3l32.88,56.95l1.58,2.73L179.96,170.44z"/>
	<path id="bd5f323f-05a6-4850-9063-7577efdef007" class="st1" d="M237.64,170.44h-89.6l17.36-25.22l1.25-1.82l22.62-32.87
		c1.57-1.98,4.45-2.31,6.43-0.73c0.13,0.1,0.25,0.21,0.37,0.33c0.12,0.13,0.23,0.26,0.33,0.41L237.64,170.44z"/>
</g>
</svg>
