<?xml version="1.0" encoding="utf-8"?>
<!-- Generator: Adobe Illustrator 24.1.2, SVG Export Plug-In . SVG Version: 6.00 Build 0)  -->
<svg version="1.1" id="f90379f0-386c-4bb1-8522-a9f66969fa1c"
	 xmlns="http://www.w3.org/2000/svg" xmlns:xlink="http://www.w3.org/1999/xlink" x="0px" y="0px" viewBox="0 0 923.37 627.62"
	 style="enable-background:new 0 0 923.37 627.62;" xml:space="preserve">
<style type="text/css">
	.st0{display:none;fill:#E6E6E6;}
	.st1{fill:#E6E6E6;}
	.st2{fill:#EA526F;}
	.st3{fill:#3F3D56;}
	.st4{display:none;fill:#EA526F;}
	.st5{display:none;fill:#3F3D56;}
	.st6{fill:none;stroke:#3F3D56;stroke-width:2;stroke-miterlimit:10;}
	.st7{fill:#FFFFFF;}
</style>
<path class="st0" d="M844.21,321.13H656.48c-6.24-0.01-11.29-5.06-11.3-11.3v-82.29c0.01-6.24,5.06-11.29,11.3-11.3h187.72
	c6.24,0.01,11.29,5.06,11.3,11.3v82.29C855.5,316.06,850.45,321.12,844.21,321.13z"/>
<rect x="642.98" y="269.54" class="st1" width="210.32" height="104.88"/>
<circle class="st2" cx="443.92" cy="158.88" r="13.7"/>
<path class="st3" d="M447.95,168.55c-8.01,0-14.5-6.49-14.5-14.5c0-8.01,6.49-14.5,14.5-14.5s14.5,6.49,14.5,14.5
	C462.44,162.05,455.95,168.54,447.95,168.55z M447.95,141.16c-7.12,0-12.89,5.77-12.89,12.89s5.77,12.89,12.89,12.89
	s12.89-5.77,12.89-12.89C460.83,146.93,455.06,141.16,447.95,141.16z"/>
<circle class="st1" cx="610.71" cy="331.31" r="13.7"/>
<path class="st3" d="M614.74,340.98c-8.01,0-14.5-6.49-14.5-14.5c0-8.01,6.49-14.5,14.5-14.5c8.01,0,14.5,6.49,14.5,14.5
	C629.23,334.49,622.74,340.97,614.74,340.98z M614.74,313.59c-7.12,0-12.89,5.77-12.89,12.89c0,7.12,5.77,12.89,12.89,12.89
	c7.12,0,12.89-5.77,12.89-12.89C627.62,319.36,621.85,313.59,614.74,313.59z"/>
<circle class="st2" cx="717.07" cy="227.37" r="13.7"/>
<path class="st3" d="M721.1,237.04c-8.01,0-14.5-6.49-14.5-14.5c0-8.01,6.49-14.5,14.5-14.5c8.01,0,14.5,6.49,14.5,14.5
	C735.59,230.54,729.1,237.03,721.1,237.04z M721.1,209.65c-7.12,0-12.89,5.77-12.89,12.89c0,7.12,5.77,12.89,12.89,12.89
	s12.89-5.77,12.89-12.89C733.98,215.42,728.21,209.65,721.1,209.65z"/>
<path class="st4" d="M662.24,241.88H474.52c-6.24-0.01-11.29-5.06-11.3-11.3v-82.29c0.01-6.24,5.06-11.29,11.3-11.3h187.72
	c6.24,0.01,11.29,5.06,11.3,11.3v82.29C673.53,236.81,668.48,241.87,662.24,241.88z"/>
<rect x="461.02" y="190.29" class="st2" width="210.32" height="104.88"/>
<path class="st5" d="M674.48,233.44H486.76c-6.46-0.01-11.7-5.24-11.7-11.7v-82.29c0.01-6.46,5.24-11.69,11.7-11.7h187.72
	c6.46,0.01,11.7,5.24,11.7,11.7v82.29C686.18,228.19,680.94,233.43,674.48,233.44z M486.76,129.36
	c-5.57,0.01-10.08,4.52-10.09,10.09v82.29c0.01,5.57,4.52,10.08,10.09,10.09h187.72c5.57-0.01,10.08-4.52,10.09-10.09v-82.29
	c-0.01-5.57-4.52-10.08-10.09-10.09H486.76z"/>
<rect x="472.86" y="181.04" class="st6" width="211.13" height="105.69"/>
<rect x="654.82" y="260.74" class="st6" width="211.13" height="105.69"/>
<rect x="488.39" y="209.65" class="st7" width="171" height="15.64"/>
<rect x="488.39" y="242.73" class="st7" width="113.46" height="15.64"/>
<rect x="830.39" y="274.3" class="st2" width="3.37" height="18.56"/>
<rect x="822.23" y="281.89" class="st2" width="19.12" height="3.66"/>
</svg>
