<?xml version="1.0" encoding="utf-8"?>
<!-- Generator: Adobe Illustrator 24.1.2, SVG Export Plug-In . SVG Version: 6.00 Build 0)  -->
<svg version="1.1" xmlns="http://www.w3.org/2000/svg" xmlns:xlink="http://www.w3.org/1999/xlink" x="0px" y="0px"
	 viewBox="0 0 627.23 401.68" style="enable-background:new 0 0 627.23 401.68;" xml:space="preserve">
<style type="text/css">
	.st0{fill:#E3E8E8;}
	.st1{fill:#FFFFFF;}
	.st2{fill:#F16667;}
	.st3{fill:#FAF39A;}
	.st4{fill:#98CB98;}
	.st5{fill:#EBEDF7;stroke:#EBEDF7;stroke-miterlimit:10;}
	.st6{fill:#0328DD;}
	.st7{fill:#FFFFFF;stroke:#0328DD;stroke-miterlimit:10;}
</style>
<g id="Layer_2">
	<g>
		<path class="st0" d="M627.23,375.73c0,3.85-3.15,7-7,7H7c-3.85,0-7-3.15-7-7V7c0-3.85,3.15-7,7-7h613.23c3.85,0,7,3.15,7,7V375.73
			z"/>
	</g>
	<rect y="30.24" class="st1" width="627.23" height="371.45"/>
</g>
<g id="Layer_3">
	<ellipse class="st2" cx="25.96" cy="15.63" rx="5.9" ry="6.26"/>
	<ellipse class="st3" cx="44.52" cy="15.63" rx="5.9" ry="6.26"/>
	<ellipse class="st4" cx="63.09" cy="15.63" rx="5.9" ry="6.26"/>
	<g>
		<path class="st1" d="M603.6,19.44c0,1.65-1.35,3-3,3H82.79c-1.65,0-3-1.35-3-3v-7.62c0-1.65,1.35-3,3-3H600.6c1.65,0,3,1.35,3,3
			V19.44z"/>
	</g>
</g>
<g id="Layer_4">
	<circle class="st5" cx="80.48" cy="91.26" r="34.46"/>
	<rect x="46.46" y="150.71" class="st5" width="131.59" height="15.75"/>
	<rect x="46.16" y="189.95" class="st5" width="89.44" height="15.75"/>
	<rect x="46.46" y="229.19" class="st5" width="53.12" height="15.75"/>
</g>
<g id="Layer_5">
	<rect x="225.41" y="58.97" class="st6" width="341.34" height="78.02"/>
	<rect x="219.99" y="55.88" class="st7" width="341.34" height="78.02"/>
	<rect x="239.59" y="71.49" class="st5" width="303.05" height="15.75"/>
	<rect x="238.69" y="97.97" class="st5" width="205.7" height="15.75"/>
	<rect x="225.41" y="286.22" class="st6" width="341.34" height="78.02"/>
	<rect x="219.99" y="283.13" class="st7" width="341.34" height="78.02"/>
	<rect x="239.59" y="298.74" class="st5" width="303.05" height="15.75"/>
	<rect x="238.69" y="325.22" class="st5" width="205.7" height="15.75"/>
	<rect x="225.93" y="172.59" class="st6" width="341.34" height="78.02"/>
	<rect x="220.51" y="169.5" class="st7" width="341.34" height="78.02"/>
	<rect x="240.11" y="185.12" class="st5" width="303.05" height="15.75"/>
	<rect x="239.2" y="211.6" class="st5" width="205.7" height="15.75"/>
</g>
</svg>
