<?xml version="1.0" encoding="utf-8"?>
<!-- Generator: Adobe Illustrator 24.1.2, SVG Export Plug-In . SVG Version: 6.00 Build 0)  -->
<svg version="1.1" id="f9eb83fe-2109-496c-8de2-d29751931755"
	 xmlns="http://www.w3.org/2000/svg" xmlns:xlink="http://www.w3.org/1999/xlink" x="0px" y="0px" viewBox="0 0 1166.2 941.3"
	 style="enable-background:new 0 0 1166.2 941.3;" xml:space="preserve">
<style type="text/css">
	.st0{display:none;fill:#EA526F;}
	.st1{display:none;fill:#000066;}
	.st2{display:none;fill:#FFFFFF;}
	.st3{display:none;opacity:0.8;fill:#FA5959;enable-background:new    ;}
	.st4{display:none;opacity:0.8;fill:#FED253;enable-background:new    ;}
	.st5{display:none;opacity:0.8;fill:#8CCF4D;enable-background:new    ;}
	.st6{fill:#000066;}
	.st7{fill:#FFFFFF;}
</style>
<path class="st0" d="M640.5,337c-56,0.1-110-15.8-161.6-33.5s-102.8-37.4-157.8-45.8c-35.4-5.4-75.6-4.9-103.3,14.7
	c-26.6,18.8-34.3,49.9-38,78.7c-2.8,21.6-4.1,44.3,6.4,64.1c7.3,13.7,19.7,25.1,28.5,38.1c30.6,45.5,12.2,103.7-17.6,150.3
	c-13.9,21.9-30.3,42.8-40.8,65.9c-10.6,23.1-14.9,49.3-4.1,72.2c10.7,22.6,34.8,39,60.6,50.2c52.5,22.8,113.6,27.7,173.1,29.6
	c131.6,4.2,263.5-4.3,395.1-12.9c48.7-3.2,97.6-6.3,145.2-15.5c26.5-5.1,53.7-12.6,72.5-29c23.8-20.9,28.7-55,11.4-79.6
	c-29.1-41.2-105.7-48.9-126.6-93.4c-11.5-24.5-1.6-52.6,13-76.2c31.3-50.7,85.2-96.1,86.1-152.8c0.6-38.9-27.4-76.9-69.3-93.9
	c-43.9-17.7-103.7-13.2-134.5,19.9C747.2,322.2,690,337,640.5,337z"/>
<path class="st0" d="M890.1,738.7c0,0-9.2-6.1-18.3-1.8c0,0,2.8,5.4,14.4,4.9L890.1,738.7z"/>
<path class="st0" d="M891.3,739c0,0,2.8,10.7-4.2,17.9c0,0-4.2-4.4,0-15.2L891.3,739z"/>
<path class="st0" d="M902.7,728.8c0,0-0.7-9.1-21.2-6.1c0,0-0.1,5.9,7.1,8.6C895.8,734.1,899.1,731.8,902.7,728.8z"/>
<path class="st0" d="M904,728.7c0,0,8.7,2.8,0.9,22c0,0-5.7-1.3-6.8-8.9S900.2,731.5,904,728.7z"/>
<path class="st0" d="M915.6,715.8c0,0,1.2-14.9-19.8-13.4c0,0-1.5,13.5,16.1,17L915.6,715.8z"/>
<path class="st0" d="M929.4,699c0,0-2.9-16.9-23.8-11.9c0,0-0.1,14.6,20.4,15.9L929.4,699z"/>
<path class="st0" d="M916.2,715.7c0,0,14.9-1.9,14.4,19.1c0,0-13.4,2.2-17.8-15.2L916.2,715.7z"/>
<rect x="127.8" y="254.8" class="st1" width="874.4" height="567.9"/>
<path class="st2" d="M1005.1,271.5H124.9c-4.3,0-7.8,3.5-7.8,7.8v22.8h895.9v-22.8C1012.9,275.1,1009.4,271.5,1005.1,271.5z"/>
<path class="st1" d="M117.1,302.2v514.1c0,8.7,7.1,15.8,15.8,15.8l0,0h864.3c8.7,0,15.8-7.1,15.8-15.8l0,0V302.2H117.1z"/>
<circle class="st3" cx="131.2" cy="286.7" r="3.7"/>
<circle class="st4" cx="141.3" cy="286.7" r="3.7"/>
<circle class="st5" cx="151.4" cy="286.7" r="3.7"/>
<rect x="128" y="447.7" class="st6" width="922.2" height="27.4"/>
<rect x="128" y="475" class="st7" width="922.2" height="130.8"/>
<rect x="157.9" y="501.9" class="st6" width="650.3" height="21.5"/>
<rect x="157.9" y="545.3" class="st6" width="421.6" height="21.5"/>
<rect x="128" y="682.1" class="st6" width="922.2" height="27.3"/>
<rect x="128" y="709.4" class="st7" width="922.2" height="130.8"/>
<rect x="157.9" y="736.3" class="st6" width="309" height="21.5"/>
<rect x="128" y="240.5" class="st6" width="922.2" height="27.4"/>
<rect x="128" y="267.9" class="st7" width="922.2" height="130.8"/>
<rect x="157.9" y="294.8" class="st6" width="774.7" height="21.5"/>
<rect x="157.9" y="338.2" class="st6" width="83.4" height="21.5"/>
</svg>
