<?xml version="1.0" encoding="utf-8"?>
<!-- Generator: Adobe Illustrator 24.1.2, SVG Export Plug-In . SVG Version: 6.00 Build 0)  -->
<svg version="1.1" id="f9eb83fe-2109-496c-8de2-d29751931755"
	 xmlns="http://www.w3.org/2000/svg" xmlns:xlink="http://www.w3.org/1999/xlink" x="0px" y="0px" viewBox="0 0 1166.17 941.29"
	 style="enable-background:new 0 0 1166.17 941.29;" xml:space="preserve">
<style type="text/css">
	.st0{fill:#EA526F;enable-background:new    ;}
	.st1{fill:#EA526F;}
	.st2{fill:#3F3D56;}
	.st3{fill:#FFFFFF;}
	.st4{opacity:0.8;fill:#FA5959;enable-background:new    ;}
	.st5{opacity:0.8;fill:#FED253;enable-background:new    ;}
	.st6{opacity:0.8;fill:#8CCF4D;enable-background:new    ;}
	.st7{opacity:0.05;enable-background:new    ;}
</style>
<path class="st0" d="M640.47,337c-56.05,0.07-110-15.81-161.6-33.46c-51.6-17.65-102.81-37.42-157.81-45.79
	c-35.38-5.38-75.6-4.89-103.26,14.66c-26.62,18.8-34.33,49.93-38.04,78.68c-2.8,21.63-4.09,44.34,6.39,64.12
	c7.27,13.74,19.72,25.06,28.49,38.15c30.62,45.54,12.21,103.72-17.55,150.32c-13.95,21.86-30.3,42.82-40.85,65.94
	c-10.55,23.12-14.88,49.33-4.12,72.15c10.66,22.61,34.75,39.03,60.59,50.24c52.49,22.81,113.59,27.7,173.06,29.58
	c131.64,4.18,263.53-4.34,395.06-12.86c48.68-3.15,97.57-6.32,145.24-15.45c26.47-5.06,53.72-12.57,72.49-29.04
	c23.82-20.9,28.69-55.04,11.36-79.57c-29.07-41.15-105.72-48.91-126.57-93.43c-11.49-24.51-1.58-52.62,13.02-76.25
	c31.31-50.69,85.21-96.1,86.11-152.8c0.62-38.94-27.41-76.92-69.27-93.85c-43.88-17.73-103.71-13.17-134.45,19.87
	C747.17,322.25,689.96,336.95,640.47,337z"/>
<path class="st1" d="M890.09,738.71c0,0-9.22-6.08-18.35-1.75c0,0,2.81,5.41,14.37,4.9L890.09,738.71z"/>
<path class="st1" d="M891.26,739.03c0,0,2.8,10.68-4.23,17.94c0,0-4.23-4.4,0-15.18L891.26,739.03z"/>
<path class="st1" d="M902.71,728.78c0,0-0.68-9.08-21.19-6.07c0,0-0.1,5.86,7.1,8.63C895.82,734.12,899.12,731.78,902.71,728.78z"/>
<path class="st1" d="M904,728.72c0,0,8.67,2.78,0.94,22.01c0,0-5.72-1.27-6.75-8.93S900.21,731.51,904,728.72z"/>
<path class="st1" d="M915.58,715.84c0,0,1.18-14.94-19.78-13.41c0,0-1.5,13.5,16.08,17.01L915.58,715.84z"/>
<path class="st1" d="M929.43,698.97c0,0-2.87-16.94-23.82-11.89c0,0-0.07,14.64,20.4,15.93L929.43,698.97z"/>
<path class="st1" d="M916.15,715.73c0,0,14.86-1.94,14.42,19.06c0,0-13.43,2.19-17.82-15.18L916.15,715.73z"/>
<path class="st2" d="M925.23,318.72H204.76c-3.54,0-6.42,2.87-6.42,6.42v18.7h733.31v-18.7
	C931.65,321.6,928.77,318.72,925.23,318.72z"/>
<path class="st3" d="M198.34,343.84v420.82c0,7.15,5.79,12.94,12.94,12.94c0,0,0,0,0,0h707.42c7.15,0,12.94-5.79,12.94-12.94l0,0
	V343.84H198.34z"/>
<circle class="st4" cx="209.96" cy="331.1" r="3"/>
<circle class="st5" cx="218.2" cy="331.1" r="3"/>
<circle class="st6" cx="226.45" cy="331.1" r="3"/>
<rect x="266.51" y="414.01" class="st7" width="589.34" height="259.15"/>
<rect x="271" y="415.97" class="st2" width="580.35" height="253.43"/>
<rect x="476.07" y="461.5" class="st3" width="306.49" height="30.01"/>
<rect x="476.07" y="508.74" class="st3" width="271.42" height="88.07"/>
<ellipse class="st3" cx="350.8" cy="492.88" rx="34.16" ry="31.38"/>
<rect x="316.64" y="542.69" class="st3" width="102.91" height="14.82"/>
<rect x="316.64" y="571.68" class="st3" width="68.33" height="14.82"/>
<rect x="492.48" y="524.27" class="st1" width="228" height="14.48"/>
<rect x="492.48" y="553.48" class="st1" width="181.87" height="14.48"/>
</svg>
